<!-- Generated by readme-aura https://github.com/collectioneur/readme-aura -->
<svg width="860" height="140" viewBox="0 0 860 140" xmlns="http://www.w3.org/2000/svg"><defs><clipPath id="satori_bc-id"><path x="0" y="0" width="860" height="140" d="M16,0 h828 a16,16 0 0 1 16,16 v108 a16,16 0 0 1 -16,16 h-828 a16,16 0 0 1 -16,-16 v-108 a16,16 0 0 1 16,-16"/></clipPath></defs><clipPath id="satori_cp-id"><path x="0" y="0" width="860" height="140" d="M16,0 h828 a16,16 0 0 1 16,16 v108 a16,16 0 0 1 -16,16 h-828 a16,16 0 0 1 -16,-16 v-108 a16,16 0 0 1 16,-16"/></clipPath><mask id="satori_om-id"><rect x="1" y="1" width="858" height="138" fill="#fff"/><path width="860" height="140" fill="none" stroke="#000" stroke-width="2" d="M4.686,4.686 A16,16 0 0 1 16,0 h828 a16,16 0 0 1 16,16 v108 a16,16 0 0 1 -16,16 h-828 a16,16 0 0 1 -16,-16 v-108 A16,16 0 0 1 4.686,4.686"/></mask><path x="0" y="0" width="860" height="140" fill="#08080c" d="M16,0 h828 a16,16 0 0 1 16,16 v108 a16,16 0 0 1 -16,16 h-828 a16,16 0 0 1 -16,-16 v-108 a16,16 0 0 1 16,-16"/><path width="860" height="140" clip-path="url(#satori_bc-id)" fill="none" stroke="rgba(110,80,220,0.18)" stroke-width="2" d="M4.686,4.686 A16,16 0 0 1 16,0 h828 a16,16 0 0 1 16,16 v108 a16,16 0 0 1 -16,16 h-828 a16,16 0 0 1 -16,-16 v-108 A16,16 0 0 1 4.686,4.686"/><clipPath id="satori_cp-id-0" clip-path="url(#satori_cp-id)"><rect x="1" y="1" width="860" height="140"/></clipPath><mask id="satori_om-id-0"><rect x="1" y="1" width="860" height="140" fill="#fff" mask="url(#satori_om-id)"/></mask><svg x="1" y="1" width="860" height="140" preserveAspectRatio="none" clip-path="url(#satori_cp-id-0)" mask="url(#satori_om-id-0)"><defs><radialGradient id="g1" cx="50%" cy="50%" r="50%"><stop offset="0%" stop-color="rgba(110,20,210,0.65)"></stop><stop offset="45%" stop-color="rgba(80,15,170,0.28)"></stop><stop offset="70%" stop-color="rgba(80,15,170,0)"></stop></radialGradient><radialGradient id="g2" cx="50%" cy="50%" r="50%"><stop offset="0%" stop-color="rgba(40,70,255,0.55)"></stop><stop offset="45%" stop-color="rgba(20,50,200,0.22)"></stop><stop offset="70%" stop-color="rgba(20,50,200,0)"></stop></radialGradient><radialGradient id="g3" cx="50%" cy="50%" r="50%"><stop offset="0%" stop-color="rgba(0,140,255,0.42)"></stop><stop offset="70%" stop-color="rgba(0,140,255,0)"></stop></radialGradient><radialGradient id="g4" cx="50%" cy="50%" r="50%"><stop offset="0%" stop-color="rgba(0,195,235,0.30)"></stop><stop offset="70%" stop-color="rgba(0,195,235,0)"></stop></radialGradient><radialGradient id="g5" cx="50%" cy="50%" r="50%"><stop offset="0%" stop-color="rgba(100,30,210,0.40)"></stop><stop offset="70%" stop-color="rgba(100,30,210,0)"></stop></radialGradient></defs><ellipse id="glow-1" cx="710" cy="150" rx="210" ry="150" fill="url(#g1)"></ellipse><ellipse id="glow-2" cx="550" cy="140" rx="190" ry="140" fill="url(#g2)"></ellipse><ellipse id="glow-3" cx="400" cy="130" rx="170" ry="130" fill="url(#g3)"></ellipse><ellipse id="glow-4" cx="250" cy="140" rx="150" ry="120" fill="url(#g4)"></ellipse><ellipse id="glow-5" cx="100" cy="150" rx="130" ry="110" fill="url(#g5)"></ellipse><style>

          @keyframes float-slow {
            0%, 100% { transform: translateX(0px); opacity: 0.8; }
            50% { transform: translateX(350px); opacity: 1.2; }
          }
          @keyframes float-medium {
            0%, 100% { transform: translateX(0px); opacity: 0.7; }
            50% { transform: translateX(-250px); opacity: 1.1; }
          }
          @keyframes float-fast {
            0%, 100% { transform: translateX(0px); opacity: 0.9; }
            50% { transform: translateX(200px); opacity: 0.6; }
          }
          @keyframes float-diagonal {
            0%, 100% { transform: translate(0px, 0px); opacity: 0.75; }
            50% { transform: translate(120px, 30px); opacity: 1.0; }
          }
          @keyframes float-wave {
            0%, 100% { transform: translateX(0px); opacity: 0.65; }
            33% { transform: translateX(-160px); opacity: 0.9; }
            66% { transform: translateX(80px); opacity: 1.0; }
          }
          @keyframes float-pulse {
            0%, 100% { transform: scale(1); opacity: 0.8; }
            50% { transform: scale(1.3); opacity: 0.4; }
          }
          #glow-1 { animation: float-slow 8s ease-in-out infinite; }
          #glow-2 { animation: float-medium 12s ease-in-out infinite; }
          #glow-3 { animation: float-fast 9s ease-in-out infinite; }
          #glow-4 { animation: float-diagonal 10s ease-in-out infinite; }
          #glow-5 { animation: float-wave 14s ease-in-out infinite; }
        
</style>
</svg><mask id="satori_om-id-0-0"><rect x="1" y="1" width="0" height="140" fill="#fff" mask="url(#satori_om-id)"/></mask><mask id="satori_om-id-0-0-0"><rect x="1" y="1" width="0" height="140" fill="#fff" mask="url(#satori_om-id)"/></mask><mask id="satori_om-id-0-0-0-0"><rect x="1" y="1" width="0" height="140" fill="#fff" mask="url(#satori_om-id)"/></mask><mask id="satori_om-id-0-0-0-1"><rect x="1" y="1" width="0" height="140" fill="#fff" mask="url(#satori_om-id)"/></mask><mask id="satori_om-id-0-0-0-2"><rect x="1" y="1" width="0" height="140" fill="#fff" mask="url(#satori_om-id)"/></mask><mask id="satori_om-id-0-0-1"><rect x="1" y="1" width="0" height="140" fill="#fff" mask="url(#satori_om-id)"/></mask><mask id="satori_om-id-0-0-1-0"><rect x="1" y="1" width="0" height="140" fill="#fff" mask="url(#satori_om-id)"/></mask><mask id="satori_om-id-0-0-1-1"><rect x="1" y="1" width="0" height="140" fill="#fff" mask="url(#satori_om-id)"/></mask><mask id="satori_om-id-0-0-1-2"><rect x="1" y="1" width="0" height="140" fill="#fff" mask="url(#satori_om-id)"/></mask><mask id="satori_om-id-0-0-2"><rect x="1" y="1" width="0" height="140" fill="#fff" mask="url(#satori_om-id)"/></mask><mask id="satori_om-id-0-0-2-0"><rect x="1" y="1" width="0" height="140" fill="#fff" mask="url(#satori_om-id)"/></mask><mask id="satori_om-id-0-0-2-1"><rect x="1" y="1" width="0" height="140" fill="#fff" mask="url(#satori_om-id)"/></mask><mask id="satori_om-id-0-0-3"><rect x="1" y="1" width="0" height="140" fill="#fff" mask="url(#satori_om-id)"/></mask><mask id="satori_om-id-0-0-3-0"><rect x="1" y="1" width="0" height="140" fill="#fff" mask="url(#satori_om-id)"/></mask><mask id="satori_om-id-0-0-3-1"><rect x="1" y="1" width="0" height="140" fill="#fff" mask="url(#satori_om-id)"/></mask><mask id="satori_om-id-0-0-4"><rect x="1" y="1" width="0" height="140" fill="#fff" mask="url(#satori_om-id)"/></mask><mask id="satori_om-id-0-0-4-0"><rect x="1" y="1" width="0" height="140" fill="#fff" mask="url(#satori_om-id)"/></mask><mask id="satori_om-id-0-0-4-1"><rect x="1" y="1" width="0" height="140" fill="#fff" mask="url(#satori_om-id)"/></mask><mask id="satori_om-id-0-1"><rect x="1" y="1" width="0" height="140" fill="#fff" mask="url(#satori_om-id)"/></mask><mask id="satori_om-id-0-2"><rect x="1" y="1" width="0" height="140" fill="#fff" mask="url(#satori_om-id)"/></mask><mask id="satori_om-id-0-3"><rect x="1" y="1" width="0" height="140" fill="#fff" mask="url(#satori_om-id)"/></mask><mask id="satori_om-id-0-4"><rect x="1" y="1" width="0" height="140" fill="#fff" mask="url(#satori_om-id)"/></mask><mask id="satori_om-id-0-5"><rect x="1" y="1" width="0" height="140" fill="#fff" mask="url(#satori_om-id)"/></mask><defs><clipPath id="satori_bc-id-1" clip-path="url(#satori_cp-id)"><rect x="1" y="32" width="273" height="77"/></clipPath></defs><mask id="satori_om-id-1"><rect x="1" y="32" width="272" height="77" fill="#fff" mask="url(#satori_om-id)"/><path width="273" height="77" fill="none" stroke="#000" stroke-width="2" d="M274,32 A0,0 0 0 1 274,32 v77 A0,0 0 0 1 274,109"/></mask><path width="273" height="77" clip-path="url(#satori_bc-id-1)" fill="none" stroke="rgba(255,255,255,0.06)" stroke-width="2" d="M274,32 A0,0 0 0 1 274,32 v77 A0,0 0 0 1 274,109"/><mask id="satori_om-id-1-0"><rect x="118" y="48" width="38" height="28" fill="#fff" mask="url(#satori_om-id)"/></mask><g mask="url(#satori_om-id)" clip-path="url(#satori_cp-id)"><path fill="#a78bfa" d="M127.0 72.3L127.0 72.3Q124.8 72.3 123.1 71.5Q121.4 70.8 120.4 69.4Q119.4 68.0 119.4 66.3L119.4 66.3L123.6 66.3Q123.6 67.1 124.0 67.6Q124.5 68.2 125.3 68.5Q126.1 68.8 127.0 68.8L127.0 68.8Q128.0 68.8 128.8 68.5Q129.6 68.1 130.0 67.5Q130.4 66.9 130.4 66.0L130.4 66.0Q130.4 65.2 130.0 64.5Q129.5 63.9 128.7 63.5Q127.8 63.2 126.6 63.2L126.6 63.2L124.8 63.2L124.8 60.1L126.6 60.1Q127.6 60.1 128.4 59.7Q129.1 59.4 129.6 58.8Q130.0 58.2 130.0 57.3L130.0 57.3Q130.0 56.5 129.6 55.9Q129.3 55.4 128.6 55.0Q127.9 54.7 127.1 54.7L127.1 54.7Q126.2 54.7 125.4 55.0Q124.7 55.3 124.2 55.9Q123.8 56.5 123.8 57.3L123.8 57.3L119.8 57.3Q119.8 55.5 120.7 54.2Q121.7 52.9 123.4 52.1Q125.0 51.4 127.1 51.4L127.1 51.4Q129.2 51.4 130.7 52.1Q132.3 52.9 133.2 54.2Q134.1 55.5 134.1 57.1L134.1 57.1Q134.1 58.8 133.0 59.9Q131.9 61.1 130.2 61.4L130.2 61.4L130.2 61.6Q131.7 61.7 132.7 62.4Q133.8 63.0 134.3 64.0Q134.8 65.0 134.8 66.3L134.8 66.3Q134.8 68.0 133.8 69.4Q132.8 70.7 131.0 71.5Q129.3 72.3 127.0 72.3ZM147.2 68.4L137.5 68.4L137.5 65.1L146.0 51.6L151.2 51.6L151.2 65.0L153.8 65.0L153.8 68.4L151.2 68.4L151.2 72L147.2 72L147.2 68.4ZM141.7 65.0L147.3 65.0L147.3 56.2L147.1 56.2L141.7 64.8L141.7 65.0Z "/></g><mask id="satori_om-id-1-1"><rect x="118" y="81" width="39" height="12" fill="#fff" mask="url(#satori_om-id)"/></mask><g mask="url(#satori_om-id)" clip-path="url(#satori_cp-id)"><path fill="rgba(200,195,225,0.45)" d="M120.1 91L118.7 91L118.7 83.7L121.5 83.7Q122.3 83.7 122.9 84.0Q123.5 84.3 123.8 84.8Q124.1 85.4 124.1 86.1Q124.1 86.8 123.8 87.3Q123.5 87.9 122.9 88.1L122.9 88.1Q122.8 88.1 122.8 88.2L122.8 88.2L124.4 91L122.7 91L121.3 88.4L120.1 88.4L120.1 91ZM120.1 85.0L120.1 87.2L121.2 87.2Q121.7 87.2 122.0 87.1Q122.3 86.9 122.4 86.7Q122.6 86.5 122.6 86.1L122.6 86.1Q122.6 85.7 122.4 85.5Q122.3 85.2 122.0 85.1Q121.7 85.0 121.2 85.0L121.2 85.0L120.1 85.0ZM131.1 91L126.2 91L126.2 83.7L131.1 83.7L131.1 85.0L127.7 85.0L127.7 86.7L130.8 86.7L130.8 87.9L127.7 87.9L127.7 89.8L131.1 89.8L131.1 91ZM134.8 91L133.3 91L133.3 83.7L136.1 83.7Q137.0 83.7 137.5 84.0Q138.1 84.4 138.4 84.9Q138.7 85.5 138.7 86.2L138.7 86.2Q138.7 86.9 138.4 87.5Q138.1 88.0 137.5 88.3Q136.9 88.6 136.1 88.6L136.1 88.6L134.8 88.6L134.8 91ZM134.8 85.0L134.8 87.4L135.9 87.4Q136.3 87.4 136.6 87.3Q136.9 87.1 137.1 86.8Q137.2 86.5 137.2 86.2Q137.2 85.8 137.1 85.5Q136.9 85.3 136.6 85.1Q136.3 85.0 135.9 85.0L135.9 85.0L134.8 85.0ZM144.0 91.1L144.0 91.1Q143.0 91.1 142.2 90.7Q141.5 90.2 141.0 89.4Q140.6 88.5 140.6 87.4L140.6 87.4Q140.6 86.2 141.0 85.3Q141.5 84.5 142.2 84.1Q143.0 83.6 144.0 83.6L144.0 83.6Q144.9 83.6 145.7 84.1Q146.5 84.5 146.9 85.3Q147.4 86.2 147.4 87.4L147.4 87.4Q147.4 88.5 146.9 89.4Q146.5 90.2 145.7 90.7Q144.9 91.1 144.0 91.1ZM144.0 89.8L144.0 89.8Q144.5 89.8 145.0 89.5Q145.4 89.2 145.6 88.7Q145.9 88.1 145.9 87.4L145.9 87.4Q145.9 86.6 145.6 86.0Q145.4 85.5 145.0 85.2Q144.5 85.0 144.0 85.0L144.0 85.0Q143.4 85.0 143.0 85.2Q142.6 85.5 142.3 86.0Q142.1 86.6 142.1 87.4L142.1 87.4Q142.1 88.1 142.3 88.7Q142.6 89.2 143.0 89.5Q143.4 89.8 144.0 89.8ZM152.2 91.1L152.2 91.1Q151.3 91.1 150.6 90.8Q150.0 90.6 149.6 90.0Q149.3 89.5 149.2 88.7L149.2 88.7L150.7 88.7Q150.7 89.1 150.9 89.4Q151.1 89.6 151.4 89.7Q151.7 89.8 152.1 89.8L152.1 89.8Q152.5 89.8 152.8 89.7Q153.1 89.6 153.3 89.4Q153.5 89.2 153.5 88.9L153.5 88.9Q153.5 88.7 153.3 88.5Q153.2 88.3 152.9 88.2Q152.6 88.1 152.2 88.0L152.2 88.0L151.4 87.8Q150.5 87.6 150.0 87.1Q149.4 86.6 149.4 85.8L149.4 85.8Q149.4 85.2 149.8 84.7Q150.1 84.2 150.8 83.9Q151.4 83.6 152.2 83.6L152.2 83.6Q153.0 83.6 153.6 83.9Q154.2 84.2 154.5 84.7Q154.9 85.2 154.9 85.8L154.9 85.8L153.4 85.8Q153.4 85.4 153.0 85.1Q152.7 84.9 152.2 84.9L152.2 84.9Q151.8 84.9 151.5 85.0Q151.2 85.1 151.1 85.3Q151.0 85.5 151.0 85.7L151.0 85.7Q151.0 86.0 151.1 86.2Q151.3 86.3 151.6 86.5Q151.8 86.6 152.1 86.6L152.1 86.6L152.8 86.8Q153.2 86.9 153.6 87.1Q154.0 87.3 154.3 87.5Q154.6 87.8 154.8 88.1Q155.0 88.5 155.0 88.9L155.0 88.9Q155.0 89.6 154.6 90.1Q154.3 90.6 153.7 90.8Q153.0 91.1 152.2 91.1Z "/></g><defs><clipPath id="satori_bc-id-2" clip-path="url(#satori_cp-id)"><rect x="274" y="32" width="290" height="77"/></clipPath></defs><mask id="satori_om-id-2"><rect x="274" y="32" width="289" height="77" fill="#fff" mask="url(#satori_om-id)"/><path width="290" height="77" fill="none" stroke="#000" stroke-width="2" d="M564,32 A0,0 0 0 1 564,32 v77 A0,0 0 0 1 564,109"/></mask><path width="290" height="77" clip-path="url(#satori_bc-id-2)" fill="none" stroke="rgba(255,255,255,0.06)" stroke-width="2" d="M564,32 A0,0 0 0 1 564,32 v77 A0,0 0 0 1 564,109"/><mask id="satori_om-id-2-0"><rect x="391" y="48" width="55" height="28" fill="#fff" mask="url(#satori_om-id)"/></mask><g mask="url(#satori_om-id)" clip-path="url(#satori_cp-id)"><path fill="#f59e0b" d="M400.0 72.3L400.0 72.3Q397.8 72.3 396.1 71.5Q394.4 70.8 393.4 69.4Q392.4 68.0 392.4 66.3L392.4 66.3L396.6 66.3Q396.6 67.1 397.0 67.6Q397.5 68.2 398.3 68.5Q399.1 68.8 400.0 68.8L400.0 68.8Q401.0 68.8 401.8 68.5Q402.6 68.1 403.0 67.5Q403.4 66.9 403.4 66.0L403.4 66.0Q403.4 65.2 403.0 64.5Q402.5 63.9 401.7 63.5Q400.8 63.2 399.6 63.2L399.6 63.2L397.8 63.2L397.8 60.1L399.6 60.1Q400.6 60.1 401.4 59.7Q402.1 59.4 402.6 58.8Q403.0 58.2 403.0 57.3L403.0 57.3Q403.0 56.5 402.6 55.9Q402.3 55.4 401.6 55.0Q400.9 54.7 400.1 54.7L400.1 54.7Q399.2 54.7 398.4 55.0Q397.7 55.3 397.2 55.9Q396.8 56.5 396.8 57.3L396.8 57.3L392.8 57.3Q392.8 55.5 393.7 54.2Q394.7 52.9 396.4 52.1Q398.0 51.4 400.1 51.4L400.1 51.4Q402.2 51.4 403.7 52.1Q405.3 52.9 406.2 54.2Q407.1 55.5 407.1 57.1L407.1 57.1Q407.1 58.8 406.0 59.9Q404.9 61.1 403.2 61.4L403.2 61.4L403.2 61.6Q404.7 61.7 405.7 62.4Q406.8 63.0 407.3 64.0Q407.8 65.0 407.8 66.3L407.8 66.3Q407.8 68.0 406.8 69.4Q405.8 70.7 404.0 71.5Q402.3 72.3 400.0 72.3ZM418.1 72.3L418.1 72.3Q415.9 72.3 414.2 71.5Q412.4 70.8 411.4 69.4Q410.5 68.0 410.4 66.3L410.4 66.3L414.6 66.3Q414.7 67.1 415.1 67.6Q415.6 68.2 416.4 68.5Q417.1 68.8 418.1 68.8L418.1 68.8Q419.1 68.8 419.9 68.5Q420.6 68.1 421.1 67.5Q421.5 66.9 421.5 66.0L421.5 66.0Q421.5 65.2 421.1 64.5Q420.6 63.9 419.8 63.5Q418.9 63.2 417.7 63.2L417.7 63.2L415.8 63.2L415.8 60.1L417.7 60.1Q418.7 60.1 419.5 59.7Q420.2 59.4 420.6 58.8Q421.1 58.2 421.1 57.3L421.1 57.3Q421.1 56.5 420.7 55.9Q420.3 55.4 419.7 55.0Q419.0 54.7 418.1 54.7L418.1 54.7Q417.2 54.7 416.5 55.0Q415.8 55.3 415.3 55.9Q414.9 56.5 414.8 57.3L414.8 57.3L410.8 57.3Q410.9 55.5 411.8 54.2Q412.8 52.9 414.4 52.1Q416.1 51.4 418.2 51.4L418.2 51.4Q420.2 51.4 421.8 52.1Q423.4 52.9 424.3 54.2Q425.1 55.5 425.1 57.1L425.1 57.1Q425.1 58.8 424.1 59.9Q423.0 61.1 421.3 61.4L421.3 61.4L421.3 61.6Q422.8 61.7 423.8 62.4Q424.8 63.0 425.3 64.0Q425.9 65.0 425.9 66.3L425.9 66.3Q425.9 68.0 424.9 69.4Q423.9 70.7 422.1 71.5Q420.4 72.3 418.1 72.3ZM436.3 72.3L436.3 72.3Q434.0 72.3 432.2 71.5Q430.4 70.8 429.4 69.5Q428.4 68.2 428.4 66.5L428.4 66.5Q428.4 65.3 429.0 64.2Q429.6 63.1 430.6 62.4Q431.6 61.7 432.8 61.5L432.8 61.5L432.8 61.3Q431.2 61.0 430.2 59.8Q429.2 58.5 429.2 56.8L429.2 56.8Q429.2 55.3 430.1 54.0Q431.0 52.8 432.6 52.1Q434.2 51.4 436.3 51.4L436.3 51.4Q438.3 51.4 439.9 52.1Q441.5 52.8 442.4 54.0Q443.3 55.3 443.3 56.8L443.3 56.8Q443.3 58.5 442.3 59.8Q441.3 61.0 439.7 61.3L439.7 61.3L439.7 61.5Q440.9 61.7 441.9 62.4Q442.9 63.1 443.5 64.2Q444.1 65.3 444.1 66.5L444.1 66.5Q444.1 68.2 443.1 69.5Q442.1 70.8 440.3 71.5Q438.5 72.3 436.3 72.3ZM436.3 69.2L436.3 69.2Q437.3 69.2 438.1 68.8Q438.9 68.4 439.3 67.8Q439.7 67.1 439.7 66.2L439.7 66.2Q439.7 65.3 439.3 64.6Q438.8 63.9 438.1 63.5Q437.3 63.1 436.3 63.1L436.3 63.1Q435.2 63.1 434.5 63.5Q433.7 63.9 433.2 64.6Q432.8 65.3 432.8 66.2L432.8 66.2Q432.8 67.1 433.2 67.7Q433.6 68.4 434.4 68.8Q435.2 69.2 436.3 69.2ZM436.3 60.1L436.3 60.1Q437.1 60.1 437.8 59.7Q438.5 59.3 438.9 58.7Q439.3 58.1 439.3 57.3L439.3 57.3Q439.3 56.5 438.9 55.8Q438.5 55.2 437.8 54.9Q437.1 54.5 436.3 54.5L436.3 54.5Q435.4 54.5 434.7 54.9Q434.0 55.2 433.6 55.8Q433.2 56.5 433.2 57.3L433.2 57.3Q433.2 58.1 433.6 58.7Q434.0 59.3 434.7 59.7Q435.4 60.1 436.3 60.1Z "/></g><mask id="satori_om-id-2-1"><rect x="399" y="81" width="39" height="12" fill="#fff" mask="url(#satori_om-id)"/></mask><g mask="url(#satori_om-id)" clip-path="url(#satori_cp-id)"><path fill="rgba(200,195,225,0.45)" d="M402.3 91.1L402.3 91.1Q401.5 91.1 400.8 90.8Q400.2 90.6 399.8 90.0Q399.4 89.5 399.4 88.7L399.4 88.7L400.9 88.7Q400.9 89.1 401.1 89.4Q401.3 89.6 401.6 89.7Q401.9 89.8 402.3 89.8L402.3 89.8Q402.7 89.8 403.0 89.7Q403.3 89.6 403.5 89.4Q403.6 89.2 403.6 88.9L403.6 88.9Q403.6 88.7 403.5 88.5Q403.3 88.3 403.1 88.2Q402.8 88.1 402.4 88.0L402.4 88.0L401.6 87.8Q400.7 87.6 400.1 87.1Q399.6 86.6 399.6 85.8L399.6 85.8Q399.6 85.2 400.0 84.7Q400.3 84.2 400.9 83.9Q401.6 83.6 402.3 83.6L402.3 83.6Q403.2 83.6 403.8 83.9Q404.4 84.2 404.7 84.7Q405.0 85.2 405.0 85.8L405.0 85.8L403.6 85.8Q403.6 85.4 403.2 85.1Q402.9 84.9 402.3 84.9L402.3 84.9Q402.0 84.9 401.7 85.0Q401.4 85.1 401.3 85.3Q401.1 85.5 401.1 85.7L401.1 85.7Q401.1 86.0 401.3 86.2Q401.5 86.3 401.7 86.5Q402.0 86.6 402.3 86.6L402.3 86.6L403.0 86.8Q403.4 86.9 403.8 87.1Q404.2 87.3 404.5 87.5Q404.8 87.8 405.0 88.1Q405.1 88.5 405.1 88.9L405.1 88.9Q405.1 89.6 404.8 90.1Q404.5 90.6 403.8 90.8Q403.2 91.1 402.3 91.1ZM409.1 85.0L406.9 85.0L406.9 83.7L412.9 83.7L412.9 85.0L410.6 85.0L410.6 91L409.1 91L409.1 85.0ZM416.1 91L414.5 91L416.9 83.7L418.9 83.7L421.4 91L419.8 91L419.2 89.3L416.6 89.3L416.1 91ZM417.0 88.1L418.8 88.1L418.6 87.5Q418.4 86.8 418.2 86L418.2 86Q418.1 85.5 417.9 84.9L417.9 84.9Q417.8 85.5 417.6 86.0L417.6 86.0Q417.4 86.8 417.2 87.5L417.2 87.5L417.0 88.1ZM424.8 91L423.3 91L423.3 83.7L426.2 83.7Q427.0 83.7 427.6 84.0Q428.2 84.3 428.5 84.8Q428.8 85.4 428.8 86.1Q428.8 86.8 428.5 87.3Q428.2 87.9 427.6 88.1L427.6 88.1Q427.5 88.1 427.5 88.2L427.5 88.2L429.0 91L427.4 91L426.0 88.4L424.8 88.4L424.8 91ZM424.8 85.0L424.8 87.2L425.9 87.2Q426.4 87.2 426.7 87.1Q427.0 86.9 427.1 86.7Q427.2 86.5 427.2 86.1L427.2 86.1Q427.2 85.7 427.1 85.5Q427.0 85.2 426.7 85.1Q426.4 85.0 425.9 85.0L425.9 85.0L424.8 85.0ZM433.6 91.1L433.6 91.1Q432.7 91.1 432.1 90.8Q431.4 90.6 431.1 90.0Q430.7 89.5 430.7 88.7L430.7 88.7L432.1 88.7Q432.2 89.1 432.3 89.4Q432.5 89.6 432.8 89.7Q433.2 89.8 433.6 89.8L433.6 89.8Q434.0 89.8 434.3 89.7Q434.6 89.6 434.7 89.4Q434.9 89.2 434.9 88.9L434.9 88.9Q434.9 88.7 434.7 88.5Q434.6 88.3 434.3 88.2Q434.0 88.1 433.6 88.0L433.6 88.0L432.8 87.8Q431.9 87.6 431.4 87.1Q430.9 86.6 430.9 85.8L430.9 85.8Q430.9 85.2 431.2 84.7Q431.6 84.2 432.2 83.9Q432.8 83.6 433.6 83.6L433.6 83.6Q434.4 83.6 435.0 83.9Q435.6 84.2 435.9 84.7Q436.3 85.2 436.3 85.8L436.3 85.8L434.9 85.8Q434.8 85.4 434.5 85.1Q434.1 84.9 433.6 84.9L433.6 84.9Q433.2 84.9 432.9 85.0Q432.7 85.1 432.5 85.3Q432.4 85.5 432.4 85.7L432.4 85.7Q432.4 86.0 432.6 86.2Q432.7 86.3 433.0 86.5Q433.3 86.6 433.6 86.6L433.6 86.6L434.2 86.8Q434.7 86.9 435.1 87.1Q435.5 87.3 435.8 87.5Q436.1 87.8 436.2 88.1Q436.4 88.5 436.4 88.9L436.4 88.9Q436.4 89.6 436.1 90.1Q435.7 90.6 435.1 90.8Q434.5 91.1 433.6 91.1Z "/></g><mask id="satori_om-id-3"><rect x="564" y="32" width="295" height="77" fill="#fff" mask="url(#satori_om-id)"/></mask><mask id="satori_om-id-3-0"><rect x="681" y="48" width="62" height="28" fill="#fff" mask="url(#satori_om-id)"/></mask><g mask="url(#satori_om-id)" clip-path="url(#satori_cp-id)"><path fill="#60a5fa" d="M686.8 51.6L691.2 51.6L691.2 72L687.1 72L687.1 55.3L686.9 55.3L682.3 58.6L682.3 54.8L686.8 51.6ZM702.5 72.3L702.5 72.3Q699.9 72.3 698.1 71.0Q696.3 69.8 695.3 67.5Q694.4 65.1 694.4 61.8L694.4 61.8Q694.4 58.5 695.3 56.2Q696.3 53.8 698.1 52.6Q699.9 51.4 702.5 51.4L702.5 51.4Q705.1 51.4 706.9 52.6Q708.7 53.9 709.7 56.2Q710.7 58.5 710.7 61.8L710.7 61.8Q710.7 65.1 709.7 67.5Q708.7 69.8 706.9 71.0Q705.1 72.3 702.5 72.3ZM702.5 68.8L702.5 68.8Q703.8 68.8 704.6 68.0Q705.5 67.2 706.0 65.6Q706.4 64.1 706.4 61.8L706.4 61.8Q706.4 59.6 706.0 58.0Q705.5 56.4 704.6 55.6Q703.8 54.8 702.5 54.8L702.5 54.8Q701.3 54.8 700.4 55.6Q699.5 56.5 699.1 58.0Q698.6 59.6 698.6 61.8L698.6 61.8Q698.6 64.1 699.1 65.6Q699.5 67.2 700.4 68.0Q701.3 68.8 702.5 68.8ZM721.3 72.3L721.3 72.3Q719.8 72.3 718.3 71.8Q716.9 71.2 715.7 70.1Q714.6 68.9 713.9 67.0Q713.2 65.1 713.2 62.3L713.2 62.3Q713.2 59.7 713.8 57.7Q714.4 55.7 715.5 54.3Q716.5 52.8 718.1 52.1Q719.6 51.4 721.5 51.4L721.5 51.4Q723.5 51.4 725.0 52.1Q726.6 52.9 727.5 54.3Q728.5 55.6 728.6 57.3L728.6 57.3L724.5 57.3Q724.3 56.2 723.5 55.6Q722.7 55.0 721.5 55.0L721.5 55.0Q720.1 55.0 719.2 55.7Q718.3 56.5 717.8 58.0Q717.3 59.4 717.3 61.5L717.3 61.5L717.5 61.5Q717.9 60.6 718.7 59.9Q719.5 59.3 720.5 59.0Q721.5 58.6 722.6 58.6L722.6 58.6Q724.4 58.6 725.8 59.5Q727.2 60.3 728.0 61.8Q728.9 63.3 728.9 65.2L728.9 65.2Q728.9 67.3 727.9 68.9Q727.0 70.5 725.3 71.4Q723.6 72.3 721.3 72.3ZM721.3 69.0L721.3 69.0Q722.3 69.0 723.1 68.5Q723.9 68.0 724.3 67.2Q724.8 66.3 724.8 65.3L724.8 65.3Q724.8 64.3 724.4 63.5Q723.9 62.6 723.1 62.1Q722.3 61.7 721.3 61.7L721.3 61.7Q720.6 61.7 719.9 62.0Q719.3 62.2 718.8 62.7Q718.3 63.3 718.0 63.9Q717.8 64.6 717.8 65.3L717.8 65.3Q717.8 66.3 718.2 67.1Q718.7 68.0 719.5 68.5Q720.3 69.0 721.3 69.0ZM735.9 51.6L740.4 51.6L740.4 72L736.2 72L736.2 55.3L736.1 55.3L731.4 58.6L731.4 54.8L735.9 51.6Z "/></g><mask id="satori_om-id-3-1"><rect x="683" y="81" width="57" height="12" fill="#fff" mask="url(#satori_om-id)"/></mask><g mask="url(#satori_om-id)" clip-path="url(#satori_cp-id)"><path fill="rgba(200,195,225,0.45)" d="M686.8 91.1L686.8 91.1Q685.9 91.1 685.1 90.7Q684.3 90.2 683.9 89.4Q683.5 88.5 683.5 87.4L683.5 87.4Q683.5 86.2 683.9 85.3Q684.3 84.5 685.1 84.1Q685.9 83.6 686.8 83.6L686.8 83.6Q687.5 83.6 688.0 83.8Q688.5 84.0 688.9 84.3Q689.4 84.6 689.6 85.1Q689.9 85.6 690.0 86.2L690.0 86.2L688.5 86.2Q688.4 85.9 688.3 85.7Q688.1 85.4 687.9 85.3Q687.7 85.1 687.4 85.0Q687.2 85.0 686.9 85.0L686.9 85.0Q686.3 85.0 685.9 85.2Q685.4 85.5 685.2 86.1Q685.0 86.6 685.0 87.4L685.0 87.4Q685.0 88.2 685.2 88.7Q685.5 89.2 685.9 89.5Q686.3 89.8 686.9 89.8L686.9 89.8Q687.2 89.8 687.4 89.7Q687.7 89.6 687.9 89.4Q688.1 89.3 688.3 89.0Q688.4 88.8 688.5 88.5L688.5 88.5L690.0 88.5Q689.9 89.0 689.7 89.5Q689.4 89.9 689.0 90.3Q688.6 90.7 688.1 90.9Q687.5 91.1 686.8 91.1ZM695.3 91.1L695.3 91.1Q694.3 91.1 693.5 90.7Q692.8 90.2 692.3 89.4Q691.9 88.5 691.9 87.4L691.9 87.4Q691.9 86.2 692.3 85.3Q692.8 84.5 693.5 84.1Q694.3 83.6 695.3 83.6L695.3 83.6Q696.2 83.6 697.0 84.1Q697.8 84.5 698.2 85.3Q698.6 86.2 698.6 87.4L698.6 87.4Q698.6 88.5 698.2 89.4Q697.8 90.2 697.0 90.7Q696.2 91.1 695.3 91.1ZM695.3 89.8L695.3 89.8Q695.8 89.8 696.2 89.5Q696.7 89.2 696.9 88.7Q697.1 88.1 697.1 87.4L697.1 87.4Q697.1 86.6 696.9 86.0Q696.7 85.5 696.2 85.2Q695.8 85.0 695.3 85.0L695.3 85.0Q694.7 85.0 694.3 85.2Q693.8 85.5 693.6 86.0Q693.4 86.6 693.4 87.4L693.4 87.4Q693.4 88.1 693.6 88.7Q693.8 89.2 694.3 89.5Q694.7 89.8 695.3 89.8ZM702.2 91L700.8 91L700.8 83.7L703.0 83.7L704.2 87.1Q704.3 87.3 704.4 87.7Q704.5 88.0 704.6 88.5L704.6 88.5Q704.7 88.9 704.8 89.3L704.8 89.3Q704.9 88.9 704.9 88.5L704.9 88.5Q705.0 88.1 705.1 87.7Q705.2 87.3 705.3 87.1L705.3 87.1L706.5 83.7L708.8 83.7L708.8 91L707.3 91L707.3 87.6Q707.3 87.3 707.3 87.0Q707.3 86.6 707.3 86.2Q707.3 85.8 707.3 85.4L707.3 85.4Q707.3 85.2 707.3 85.0L707.3 85.0Q707.3 85.2 707.2 85.4L707.2 85.4Q707.1 85.9 707.0 86.3Q706.9 86.7 706.8 87.0Q706.7 87.3 706.6 87.6L706.6 87.6L705.4 91L704.1 91L702.9 87.6Q702.8 87.3 702.7 87.0Q702.6 86.7 702.5 86.3Q702.4 85.9 702.3 85.4L702.3 85.4Q702.2 85.2 702.2 85.1L702.2 85.1Q702.2 85.2 702.2 85.4L702.2 85.4Q702.2 85.8 702.2 86.2Q702.2 86.6 702.2 87.0Q702.2 87.3 702.2 87.6L702.2 87.6L702.2 91ZM712.6 91L711.1 91L711.1 83.7L713.4 83.7L714.5 87.1Q714.6 87.3 714.7 87.7Q714.8 88.0 714.9 88.5L714.9 88.5Q715.0 88.9 715.1 89.3L715.1 89.3Q715.2 88.9 715.3 88.5L715.3 88.5Q715.4 88.1 715.5 87.7Q715.6 87.3 715.6 87.1L715.6 87.1L716.8 83.7L719.1 83.7L719.1 91L717.6 91L717.6 87.6Q717.6 87.3 717.6 87.0Q717.6 86.6 717.6 86.2Q717.6 85.8 717.6 85.4L717.6 85.4Q717.6 85.2 717.6 85.0L717.6 85.0Q717.6 85.2 717.5 85.4L717.5 85.4Q717.4 85.9 717.3 86.3Q717.2 86.7 717.1 87.0Q717.0 87.3 716.9 87.6L716.9 87.6L715.7 91L714.5 91L713.2 87.6Q713.2 87.3 713.1 87.0Q712.9 86.7 712.8 86.3Q712.7 85.9 712.6 85.4L712.6 85.4Q712.6 85.2 712.5 85.1L712.5 85.1Q712.5 85.2 712.5 85.4L712.5 85.4Q712.5 85.8 712.5 86.2Q712.5 86.6 712.6 87.0Q712.6 87.3 712.6 87.6L712.6 87.6L712.6 91ZM721.4 83.7L722.9 83.7L722.9 91L721.4 91L721.4 83.7ZM727.1 85.0L724.9 85.0L724.9 83.7L730.9 83.7L730.9 85.0L728.6 85.0L728.6 91L727.1 91L727.1 85.0ZM735.5 91.1L735.5 91.1Q734.7 91.1 734.0 90.8Q733.4 90.6 733.0 90.0Q732.7 89.5 732.6 88.7L732.6 88.7L734.1 88.7Q734.1 89.1 734.3 89.4Q734.5 89.6 734.8 89.7Q735.1 89.8 735.5 89.8L735.5 89.8Q735.9 89.8 736.2 89.7Q736.5 89.6 736.7 89.4Q736.9 89.2 736.9 88.9L736.9 88.9Q736.9 88.7 736.7 88.5Q736.6 88.3 736.3 88.2Q736.0 88.1 735.6 88.0L735.6 88.0L734.8 87.8Q733.9 87.6 733.4 87.1Q732.8 86.6 732.8 85.8L732.8 85.8Q732.8 85.2 733.2 84.7Q733.5 84.2 734.2 83.9Q734.8 83.6 735.6 83.6L735.6 83.6Q736.4 83.6 737.0 83.9Q737.6 84.2 737.9 84.7Q738.2 85.2 738.3 85.8L738.3 85.8L736.8 85.8Q736.8 85.4 736.4 85.1Q736.1 84.9 735.5 84.9L735.5 84.9Q735.2 84.9 734.9 85.0Q734.6 85.1 734.5 85.3Q734.4 85.5 734.4 85.7L734.4 85.7Q734.4 86.0 734.5 86.2Q734.7 86.3 734.9 86.5Q735.2 86.6 735.5 86.6L735.5 86.6L736.2 86.8Q736.6 86.9 737.0 87.1Q737.4 87.3 737.7 87.5Q738.0 87.8 738.2 88.1Q738.4 88.5 738.4 88.9L738.4 88.9Q738.4 89.6 738.0 90.1Q737.7 90.6 737.1 90.8Q736.4 91.1 735.5 91.1Z "/></g></svg>